<svg id="Layer_1" data-name="Layer 1" xmlns="http://www.w3.org/2000/svg" viewBox="0 0 105.5 73"><defs><style>.cls-1{fill:#fff;}.cls-2{fill:#1f60ab;}.cls-3{fill:#ececec;}.cls-4{fill:#ffad5b;}.cls-5{fill:#40d115;}.cls-6{isolation:isolate;}</style></defs><g id="Logo6"><g id="Group_40392" data-name="Group 40392"><g id="Group_40384" data-name="Group 40384"><g id="Line_1643" data-name="Line 1643"><rect class="cls-1" y="22.3" width="9" height="0.4"/></g><g id="Line_1646" data-name="Line 1646"><rect class="cls-1" x="15" y="33.3" width="9" height="0.4"/></g><g id="Line_1647" data-name="Line 1647"><rect class="cls-1" x="5.72" y="48.3" width="9" height="0.4"/></g><g id="Rectangle_16553" data-name="Rectangle 16553"><rect class="cls-1" x="0.5" width="105" height="73" rx="3"/></g><g id="Path_22829" data-name="Path 22829"><path class="cls-2" d="M64.09,40.07c.06.16-17.94,0-18,0,1.19-1.41,3.1-8.9,4.69-9.75,5.16-1,12.28-9.47,13.63-10.85A4.35,4.35,0,0,1,67.36,18c-.08.71-1-3.15-2.68-2.66a33.15,33.15,0,0,0-14.59,8.3,4.07,4.07,0,0,1-1.32.84,2.67,2.67,0,0,0-1.9,2.32c-1-.48-.73-1.34-.73-2.12-.91-.06-1.36.8-2.06,1.07a5.48,5.48,0,0,1-1,.31c-.33.06-.76.13-.9-.31s.26-.63.57-.78c.74-.36,1.49-.7,2.2-1.11.24-.13.58-.38.34-.77s-.47-.06-.7,0c-1,.45-2,.92-3.07,1.35-.32.12-.8.44-1-.12s.24-.79.6-.95c.83-.38,1.68-.67,2.5-1.05a1.5,1.5,0,0,0,1.12-1.22c-1.4.12-2.7.25-4,.34-.27,0-.67.17-.8-.23s.31-.63.57-.81a3,3,0,0,1,2.1-.42,3,3,0,0,0,2-.27c-1.06-.85-2.27-.1-3.24-.78.21-.82.83-.79,1.42-.81C48,18,62.66,10.27,64.16,9.48a4.43,4.43,0,0,1,4.32-.06c1.84.93,3.64,2,5.47,2.94a21.63,21.63,0,0,0,4.58,1.91A7.67,7.67,0,0,1,82.23,17c-.1-1.07-.51-1.75-1.87-2.75-.55-.4-.76-.66-.27-1.28a4.66,4.66,0,0,0,.67-2,5.7,5.7,0,0,1,3.73-4.58c.83-.29,1.75.18,2.46-.51,0,0,.19.07.29.11-.4,1.26.61.72.93.82a6.4,6.4,0,0,1,4.2,3.36c.86,1.82,2.09,2.46,3.93,2a2.6,2.6,0,0,1-2.43,2c-.52,0-.9.06-.85.85a1.41,1.41,0,0,1-1.2,1.57c-.46.11-1,.4-.82.87.68,1.84-.86,2.22-1.55,3.07C88.31,22,87,22.9,85.08,21.85c-1-.55-1.88.23-2.57,1.07a10.15,10.15,0,0,0-1.83,4.48,37.85,37.85,0,0,1-2,7.76,4,4,0,0,1,4.08-.78c.07.42,4.24.66,6.46-.36a9,9,0,0,0,3-1.92,4.57,4.57,0,0,1,2.18-1.4c.46-.16.81-.2,1.1.51a6.34,6.34,0,0,1,.16,3.61c-.26,2-1.41,2-2.57,2.16a51,51,0,0,1-7.47,1.13,29.27,29.27,0,0,0-3.85.44,41.46,41.46,0,0,1-6.59.22c-1.08,0-1.65-.93-1.69-2.16,0-1.61-.08-3.22-.13-5C69.65,31.73,64.41,39.5,64.09,40.07Z" transform="translate(0 -2.32)"/></g><g id="Path_22830" data-name="Path 22830"><path class="cls-3" d="M18.36,13.58c2.15-.13,4.3-.21,6.43-.24,4.1-.06,8.2-.3,12.3-.33,4.72,0,9.45-.29,14.17-.45.3,0,.59,0,.89,0,.54,0,.62.28.37.76a2.11,2.11,0,0,1-2.09,1.38c-6.57-.21-13.15-.23-19.71-.55C26.59,14,22.45,14.12,18.36,13.58Z" transform="translate(0 -2.32)"/></g><g id="Path_22834" data-name="Path 22834"><path class="cls-4" d="M47.51,7.43c2.15-.14,4.3-.22,6.43-.25,4.1,0,8.2-.3,12.3-.33,4.72,0,9.44-.28,14.17-.44.3,0,.59,0,.89,0,.54,0,.62.27.37.76a2.11,2.11,0,0,1-2.09,1.38C73,8.35,66.43,8.33,59.86,8,55.74,7.81,51.6,8,47.51,7.43Z" transform="translate(0 -2.32)"/></g><g id="Path_22832" data-name="Path 22832"><path class="cls-3" d="M26.36,32.72c1.28-.11,2.55-.19,3.81-.21,2.44,0,4.86-.26,7.3-.29,2.8,0,5.6-.26,8.4-.39h.53c.32,0,.37.24.22.67-.27.78-.6,1.25-1.24,1.22-3.9-.19-7.8-.21-11.69-.49A59.91,59.91,0,0,1,26.36,32.72Z" transform="translate(0 -2.32)"/></g><g id="Path_22833" data-name="Path 22833"><path class="cls-5" d="M7,39.09q3.48-.15,6.93-.18c4.41,0,8.82-.22,13.24-.25,5.08,0,10.17-.22,15.26-.33h1c.58,0,.67.21.4.58a2.43,2.43,0,0,1-2.25,1c-7.07-.16-14.15-.18-21.22-.42C15.86,39.38,11.41,39.5,7,39.09Z" transform="translate(0 -2.32)"/></g></g><g id="NSRS" class="cls-6"><g class="cls-6"><path class="cls-2" d="M10.92,66.82V44.12h4.85l9,14h.16v-14h4.49v22.7H24.91L15.57,52.07h-.16V66.82Z" transform="translate(0 -2.32)"/><path class="cls-2" d="M43.39,67.09c-.83,0-1.75,0-2.75-.07s-2-.1-2.92-.18-1.82-.16-2.61-.25V62.86l2.49.2q1.27.11,2.43.15c.77,0,1.43,0,2,0a17.16,17.16,0,0,0,2.6-.15A3.7,3.7,0,0,0,46,62.66a1.4,1.4,0,0,0,.5-.57,2.68,2.68,0,0,0,.16-.76c0-.3,0-.63,0-1a7.33,7.33,0,0,0-.08-1.25,1.87,1.87,0,0,0-.28-.78,1.21,1.21,0,0,0-.64-.41,6.61,6.61,0,0,0-1.14-.2l-5.08-.63A7.56,7.56,0,0,1,37,56.36,4,4,0,0,1,35.44,55a5.15,5.15,0,0,1-.77-1.95,12.92,12.92,0,0,1-.22-2.54A8.38,8.38,0,0,1,35.08,47a4.57,4.57,0,0,1,1.76-2,6.8,6.8,0,0,1,2.69-.91,25.21,25.21,0,0,1,3.37-.22q1.32,0,2.7.09t2.61.21a17.3,17.3,0,0,1,2,.33v3.63c-.55-.09-1.19-.16-1.92-.23s-1.48-.12-2.27-.15-1.54,0-2.25,0a19.84,19.84,0,0,0-2.46.12,4.17,4.17,0,0,0-1.4.38,1.29,1.29,0,0,0-.67.86,6.06,6.06,0,0,0-.12,1.32,6.31,6.31,0,0,0,.13,1.5,1,1,0,0,0,.63.71,7,7,0,0,0,1.55.33l5.08.59a10.71,10.71,0,0,1,1.72.33,4.08,4.08,0,0,1,1.42.73,3.61,3.61,0,0,1,1,1.38A5,5,0,0,1,51.08,57c.09.41.16.87.22,1.37s.08,1.07.08,1.69a11.64,11.64,0,0,1-.38,3.2,5,5,0,0,1-1.07,2,4.41,4.41,0,0,1-1.7,1.16A8.47,8.47,0,0,1,46,67Q44.79,67.09,43.39,67.09Z" transform="translate(0 -2.32)"/><path class="cls-2" d="M56.5,66.82V44.12H67.35a10.45,10.45,0,0,1,3.55.49,4.27,4.27,0,0,1,2,1.44,5.52,5.52,0,0,1,.94,2.28,16.83,16.83,0,0,1,.25,3,17.09,17.09,0,0,1-.2,2.48A6.39,6.39,0,0,1,73,56.23a3.94,3.94,0,0,1-2.12,1.65l3.63,8.94h-5l-3.44-9.11,1.16.63a1.71,1.71,0,0,1-.55.13,5,5,0,0,1-.71,0H61.18v8.31Zm4.68-12.11h4.29a11.35,11.35,0,0,0,2.18-.16A2.45,2.45,0,0,0,68.84,54a1.7,1.7,0,0,0,.49-1,10.88,10.88,0,0,0,.1-1.67,11.11,11.11,0,0,0-.1-1.68,1.73,1.73,0,0,0-.46-1,2.2,2.2,0,0,0-1.17-.53,11.45,11.45,0,0,0-2.2-.17H61.18Z" transform="translate(0 -2.32)"/><path class="cls-2" d="M87.42,67.09c-.84,0-1.76,0-2.76-.07s-2-.1-2.92-.18-1.82-.16-2.61-.25V62.86l2.49.2q1.27.11,2.43.15c.77,0,1.43,0,2,0a17.4,17.4,0,0,0,2.61-.15A3.71,3.71,0,0,0,90,62.66a1.4,1.4,0,0,0,.5-.57,2.37,2.37,0,0,0,.16-.76c0-.3,0-.63,0-1a7.21,7.21,0,0,0-.09-1.25,1.87,1.87,0,0,0-.28-.78,1.17,1.17,0,0,0-.64-.41,6.61,6.61,0,0,0-1.14-.2l-5.08-.63A7.7,7.7,0,0,1,81,56.36,4.06,4.06,0,0,1,79.46,55a5.15,5.15,0,0,1-.77-1.95,12.92,12.92,0,0,1-.22-2.54A8.38,8.38,0,0,1,79.1,47a4.59,4.59,0,0,1,1.77-2,6.7,6.7,0,0,1,2.68-.91,25.21,25.21,0,0,1,3.37-.22c.88,0,1.78,0,2.71.09s1.79.12,2.6.21a17.3,17.3,0,0,1,2,.33v3.63c-.55-.09-1.19-.16-1.91-.23s-1.49-.12-2.28-.15-1.54,0-2.25,0a19.55,19.55,0,0,0-2.45.12,4.16,4.16,0,0,0-1.41.38,1.29,1.29,0,0,0-.67.86,6.06,6.06,0,0,0-.12,1.32,6.89,6.89,0,0,0,.13,1.5,1,1,0,0,0,.63.71,7,7,0,0,0,1.55.33l5.08.59a10.71,10.71,0,0,1,1.72.33,4.08,4.08,0,0,1,1.42.73,3.51,3.51,0,0,1,1,1.38A4.08,4.08,0,0,1,95.1,57c.09.41.16.87.22,1.37s.08,1.07.08,1.69a11.64,11.64,0,0,1-.38,3.2,5,5,0,0,1-1.07,2,4.41,4.41,0,0,1-1.7,1.16A8.38,8.38,0,0,1,90,67C89.21,67.05,88.34,67.09,87.42,67.09Z" transform="translate(0 -2.32)"/></g></g></g></g></svg>